%FSLAX35Y35*%
%MOIN*%
G04 EasyPC Gerber Version 18.0.8 Build 3632 *
%ADD22O,0.02500X0.07200*%
%ADD20R,0.01180X0.05910*%
%ADD24R,0.02000X0.04900*%
%ADD74R,0.03150X0.05906*%
%ADD28R,0.03937X0.06299*%
%ADD76R,0.05512X0.07480*%
%ADD26R,0.06000X0.08000*%
%ADD25R,0.06299X0.07087*%
%ADD75R,0.07087X0.05512*%
%ADD70R,0.07480X0.10236*%
%ADD73R,0.06000X0.06000*%
%ADD11C,0.00100*%
%ADD10C,0.00500*%
%ADD14C,0.01000*%
%ADD21R,0.05910X0.01180*%
%ADD29R,0.06299X0.03937*%
%ADD78R,0.08800X0.04800*%
%ADD71R,0.07087X0.06299*%
%ADD83C,0.01181*%
%ADD84C,0.01969*%
%ADD85C,0.02362*%
%ADD86C,0.02756*%
%ADD81C,0.03150*%
%ADD87C,0.03937*%
%ADD82C,0.05000*%
%ADD80C,0.06000*%
%ADD72C,0.07400*%
%ADD23C,0.07677*%
%ADD27C,0.08661*%
%ADD77C,0.15800*%
%ADD79R,0.08661X0.14173*%
X0Y0D02*
D02*
D10*
X11020Y250D02*
X361020D01*
Y195801*
X11020*
Y250*
D02*
D11*
X13289Y7478D02*
Y2519D01*
X18074*
G75*
G02X13289Y7478I3714J8371*
G01*
G36*
Y2519*
X18074*
G75*
G02X13289Y7478I3714J8371*
G01*
G37*
Y14301D02*
G75*
G02X21788Y20048I8499J-3411D01*
G01*
G75*
G02X25502Y2519J-9158*
G01*
X358752*
Y193533*
X280333*
G75*
G02X280873Y191707I-2817J-1826*
G01*
Y161345*
X282693Y159526*
G75*
G02X283099Y159035I-2374J-2374*
G01*
Y166801*
X292288*
Y158404*
X283593*
X285250Y156746*
X293256*
Y146767*
X302994Y156504*
G75*
G02X305813Y157672I2819J-2819*
G01*
X307020*
G75*
G02X316687Y158182I4994J-2786*
G01*
G75*
G02X318269Y157287I-820J-3296*
G01*
X327761Y147795*
X329685*
G75*
G02X334285Y150117I4600J-3396*
G01*
G75*
G02X338272Y140299J-5719*
G01*
Y122898*
G75*
G02X334285Y113080I-3987J-4099*
G01*
G75*
G02X330298Y122898J5719*
G01*
Y140299*
G75*
G02X329685Y141002I3986J4098*
G01*
X326355*
G75*
G02X323953Y141997J3396*
G01*
X315555Y150395*
G75*
G02X309608Y149698I-3541J4491*
G01*
X307465*
X296315Y138548*
Y130671*
X285981*
Y141797*
X288288*
G75*
G02X288329Y141839I2867J-2772*
G01*
X292901Y146411*
X283521*
Y141797*
X285292*
Y130671*
X283718*
Y127209*
G75*
G02X282665Y124668I-3593*
G01*
X269891Y111894*
G75*
G02X269947Y111096I-5664J-798*
G01*
G75*
G02X269348Y108547I-5719*
G01*
Y93549*
X279978Y82918*
X287032*
Y83569*
X298158*
Y83076*
X298894*
G75*
G02X301627Y82194I0J-4676*
G01*
X304677Y85244*
G75*
G02X305941Y86096I2819J-2819*
G01*
Y87986*
X316276*
Y76864*
X307574*
X306439Y75729*
G75*
G02X306454Y75358I-4505J-372*
G01*
Y55378*
G75*
G02X305130Y52183I-4519J0*
G01*
X302640Y49693*
G75*
G02X299445Y48369I-3195J3195*
G01*
X298028*
Y47719*
X287212*
Y47033*
X298028*
Y36695*
X295076*
Y35801*
G75*
G02X294312Y33956I-2609*
G01*
X291428Y31072*
G75*
G02X289583Y30308I-1845J1845*
G01*
X255292*
G75*
G02X253447Y31072J2609*
G01*
X253304Y31216*
X253278Y31191*
G75*
G02X251433Y30426I-1845J1845*
G01*
X234741*
G75*
G02X232896Y31191J2609*
G01*
X229776Y34311*
G75*
G02X229011Y36156I1845J1845*
G01*
Y39916*
X214469Y54459*
G75*
G02X208598Y53015I-3399J1165*
G01*
X207205*
G75*
G02X206360Y51161I-3927J671*
G01*
G75*
G02X206278Y48026I-3273J-1482*
G01*
X214071*
G75*
G02X220135Y45417I2471J-2609*
G01*
G75*
G02X214071Y42808I-3593*
G01*
X200165*
G75*
G02X198320Y43572J2609*
G01*
X196732Y45161*
G75*
G02X190481Y48707I-3104J1812*
G01*
X184428*
Y40965*
X191113Y34280*
G75*
G02X191877Y32435I-1845J-1845*
G01*
Y31443*
X195028*
Y27505*
X195260*
Y31758*
X206386*
Y21419*
X199922*
G75*
G02X198540Y21106I-1382J2886*
G01*
X195028*
Y17167*
X183508*
Y31443*
X186570*
X180676Y37338*
X175174Y31837*
Y31443*
X178099*
Y17167*
X166579*
Y24098*
X166256*
Y22128*
X155134*
Y32467*
X166256*
Y30497*
X166579*
Y31443*
X169956*
Y32917*
G75*
G02X170720Y34762I2609*
G01*
X177240Y41281*
Y48707*
X173300*
Y51072*
X172319*
G75*
G02X170474Y51836J2609*
G01*
X168354Y53956*
G75*
G02X167590Y55801I1845J1845*
G01*
Y56781*
X164581*
X147494Y39694*
G75*
G02X145649Y38930I-1845J1845*
G01*
X128796*
G75*
G02X123707Y35821I-5089J2609*
G01*
G75*
G02X119189Y45044J5719*
G01*
Y63075*
G75*
G02X120512Y66270I4519J0*
G01*
X123588Y69346*
Y82573*
X122544*
Y83222*
X117424*
X114727Y80525*
G75*
G02X111532Y79202I-3195J3195*
G01*
X103033*
G75*
G02X102089Y79301J4520*
G01*
X96615*
Y88140*
X102093*
G75*
G02X103033Y88239I940J-4419*
G01*
X109660*
X112357Y90935*
G75*
G02X115552Y92259I3195J-3195*
G01*
X122544*
Y92907*
X133670*
Y82573*
X132625*
Y67474*
G75*
G02X131302Y64280I-4519J0*
G01*
X128226Y61203*
Y45044*
G75*
G02X128796Y44148I-4518J-3505*
G01*
X144569*
X161656Y61235*
G75*
G02X163500Y62000I1845J-1845*
G01*
X165225*
Y64661*
X163077*
G75*
G02X161965Y64413I-1112J2360*
G01*
X155796*
Y61459*
X145457*
Y72585*
X155256*
X151075Y76766*
G75*
G02X150311Y78611I1845J1845*
G01*
Y112161*
X149201Y113271*
X59199*
G75*
G02X57354Y114035J2609*
G01*
X49047Y122342*
G75*
G02X48283Y124187I1845J1845*
G01*
Y126744*
G75*
G02X47707Y127976I2609J1970*
G01*
X31111*
Y126006*
X19985*
Y136344*
X31111*
Y134375*
X32642*
Y142903*
X31111Y141372*
Y137030*
X19985*
Y147368*
X24327*
X29223Y152264*
G75*
G02X32418Y153587I3195J-3195*
G01*
X32642*
Y154238*
X35006*
Y181490*
G75*
G02X35943Y183753I3200J0*
G01*
X45723Y193533*
X25061*
G75*
G02X21325Y176013I-3736J-8361*
G01*
G75*
G02X13289Y180780J9158*
G01*
Y14301*
X23628Y34398D02*
G75*
G02Y26298J-4050D01*
G01*
G75*
G02Y34398J4050*
G01*
X30321Y80204D02*
G75*
G02Y62304J-8950D01*
G01*
G75*
G02Y80204J8950*
G01*
X42132Y61700D02*
G75*
G02Y43800J-8950D01*
G01*
G75*
G02Y61700J8950*
G01*
X49110Y32532D02*
Y36057D01*
G75*
G02X50433Y39252I4519J0*
G01*
X53839Y42657*
G75*
G02X57034Y43981I3195J-3195*
G01*
X76295*
Y54354*
X68274*
G75*
G02X65079Y55677I0J4519*
G01*
X58375Y62381*
G75*
G02X53943Y61335I-4432J8873*
G01*
G75*
G02Y81172J9919*
G01*
G75*
G02X63752Y69784J-9919*
G01*
X70146Y63391*
X79811*
G75*
G02X81816I1002J-4519*
G01*
X94513*
X96615Y65492*
Y69939*
X102090*
G75*
G02X103977I944J-4419*
G01*
X109453*
Y61100*
X105004*
X99580Y55677*
G75*
G02X96385Y54354I-3195J3195*
G01*
X85332*
Y43833*
G75*
G02X78888Y34944I-4519J-3505*
G01*
X58906*
X58147Y34185*
Y32532*
G75*
G02X53628Y25330I-4519J-2184*
G01*
G75*
G02X49110Y32532J5019*
G01*
X59022Y110808D02*
G75*
G02Y101031J-4889D01*
G01*
G75*
G02Y110808J4889*
G01*
X80853Y25335D02*
G75*
G02Y15835J-4750D01*
G01*
G75*
G02Y25335J4750*
G01*
X84012Y66482D02*
X73252D01*
Y82758*
X84012*
Y66482*
X108269Y99508D02*
G75*
G02X97508I-5381D01*
G01*
G75*
G02X108269I5381*
G01*
X108485Y71171D02*
X97583D01*
Y78069*
X108485*
Y71171*
X122064Y96899D02*
G75*
G02X109927Y99508I-5788J2609D01*
G01*
G75*
G02X122064Y102117I6349*
G01*
X122544*
Y103931*
X133670*
Y93596*
X122544*
Y96899*
X122064*
X123746Y26545D02*
G75*
G02Y17045J-4750D01*
G01*
G75*
G02Y26545J4750*
G01*
X143804Y71616D02*
Y62427D01*
X135402*
Y71616*
X143804*
X165288Y12073D02*
X156103D01*
Y20474*
X165288*
Y12073*
X205418Y11364D02*
X196229D01*
Y19766*
X205418*
Y11364*
X251000Y9596D02*
X230961D01*
Y21632*
X251000*
Y9596*
X271250Y111136D02*
G75*
G02X280750I4750D01*
G01*
G75*
G02X271250I-4750*
G01*
X285241Y9596D02*
X265205D01*
Y21632*
X285241*
Y9596*
X286689Y87060D02*
X283855D01*
G75*
G02X281035Y88228J3987*
G01*
X271636Y97628*
G75*
G02X277274Y103266I2819J2819*
G01*
X285506Y95034*
X286689*
Y96215*
X297811*
Y85880*
X286689*
Y87060*
X296843Y97872D02*
X287658D01*
Y106270*
X296843*
Y97872*
X303748Y178274D02*
Y187463D01*
X312150*
Y178274*
X303748*
X318776Y9577D02*
X298737D01*
Y21612*
X318776*
Y9577*
X311975Y161907D02*
G75*
G02Y171407J4750D01*
G01*
G75*
G02Y161907J-4750*
G01*
X313746Y141643D02*
G75*
G02Y123326J-9158D01*
G01*
G75*
G02Y141643J9158*
G01*
X314362Y93375D02*
G75*
G02X315213Y104748I851J5655D01*
G01*
G75*
G02X319661Y102623J-5719*
G01*
X329233*
G75*
G02X334945Y108621I5712J280*
G01*
G75*
G02Y97184J-5719*
G01*
G75*
G02X334185Y97235I1J5719*
G01*
G75*
G02X331072Y95436I-3113J1795*
G01*
X321907*
X324534Y92809*
G75*
G02X325529Y90407I-2402J-2402*
G01*
Y87986*
X327300*
Y86412*
X329822*
G75*
G02X332641Y85244J-3987*
G01*
X334865Y83020*
G75*
G02X334945Y83021I68J-5724*
G01*
G75*
G02Y71584J-5719*
G01*
G75*
G02X329227Y77382J5719*
G01*
X328170Y78438*
X327300*
Y76864*
X316965*
Y87986*
X318736*
Y89001*
X314362Y93375*
X315174Y106051D02*
G75*
G02Y115551J4750D01*
G01*
G75*
G02Y106051J-4750*
G01*
X324142Y179915D02*
Y177305D01*
X313804*
Y188431*
X324142*
Y187992*
X330117*
G75*
G02X334217Y189723I4099J-3987*
G01*
G75*
G02X338204Y179906J-5719*
G01*
Y162504*
G75*
G02X334217Y152686I-3987J-4099*
G01*
G75*
G02X330230Y162504J5719*
G01*
Y179906*
G75*
G02X330117Y180018I3979J4091*
G01*
X324251*
G75*
G02X324142Y179915I-2790J2852*
G01*
X350477Y9596D02*
X330441D01*
Y21632*
X350477*
Y9596*
X352017Y163155D02*
G75*
G02Y153655J-4750D01*
G01*
G75*
G02Y163155J4750*
G01*
Y188755D02*
G75*
G02Y179255J-4750D01*
G01*
G75*
G02Y188755J4750*
G01*
X352085Y123548D02*
G75*
G02Y114048J-4750D01*
G01*
G75*
G02Y123548J4750*
G01*
Y149148D02*
G75*
G02Y139648J-4750D01*
G01*
G75*
G02Y149148J4750*
G01*
X352745Y82052D02*
G75*
G02Y72552J-4750D01*
G01*
G75*
G02Y82052J4750*
G01*
Y107652D02*
G75*
G02Y98152J-4750D01*
G01*
G75*
G02Y107652J4750*
G01*
X13289Y30348D02*
G36*
Y20585D01*
X76103*
G75*
G02X80853Y25335I4750*
G01*
G75*
G02X85603Y20585J-4750*
G01*
X119153*
G75*
G02X123746Y26545I4593J1211*
G01*
G75*
G02X128340Y20585J-4750*
G01*
X166579*
Y24098*
X166256*
Y22128*
X155134*
Y30348*
X58647*
G75*
G02X53628Y25330I-5019*
G01*
G75*
G02X48610Y30348J5019*
G01*
X27678*
G75*
G02X23628Y26298I-4050*
G01*
G75*
G02X19578Y30348J4050*
G01*
X13289*
G37*
X19578D02*
G36*
G75*
G02X23628Y34398I4050D01*
G01*
G75*
G02X27678Y30348J-4050*
G01*
X48610*
G75*
G02X49110Y32532I5019*
G01*
Y36057*
G75*
G02X50433Y39252I4519J0*
G01*
X53839Y42657*
G75*
G02X57034Y43981I3195J-3195*
G01*
X76295*
Y52750*
X51082*
G75*
G02X42132Y43800I-8950*
G01*
G75*
G02X33182Y52750J8950*
G01*
X13289*
Y30348*
X19578*
G37*
X155134D02*
G36*
Y32467D01*
X166256*
Y30497*
X166579*
Y31443*
X169956*
Y32917*
G75*
G02X170720Y34762I2609*
G01*
X177240Y41281*
Y48707*
X173300*
Y51072*
X172319*
G75*
G02X170474Y51836J2609*
G01*
X168354Y53956*
G75*
G02X167590Y55801I1845J1845*
G01*
Y56781*
X164581*
X147494Y39694*
G75*
G02X145649Y38930I-1845J1845*
G01*
X128796*
G75*
G02X123707Y35821I-5089J2609*
G01*
G75*
G02X119189Y45044J5719*
G01*
Y52750*
X85332*
Y43833*
G75*
G02X78888Y34944I-4519J-3505*
G01*
X58906*
X58147Y34185*
Y32532*
G75*
G02X58647Y30348I-4519J-2184*
G01*
X155134*
G37*
X13289Y71254D02*
G36*
Y52750D01*
X33182*
G75*
G02X42132Y61700I8950*
G01*
G75*
G02X51082Y52750J-8950*
G01*
X76295*
Y54354*
X68274*
G75*
G02X65079Y55677I0J4519*
G01*
X58375Y62381*
G75*
G02X53943Y61335I-4432J8873*
G01*
G75*
G02X44025Y71254J9919*
G01*
X39271*
G75*
G02X30321Y62304I-8950*
G01*
G75*
G02X21371Y71254J8950*
G01*
X13289*
G37*
X21371D02*
G36*
G75*
G02X23724Y77301I8948J-1D01*
G01*
X13288*
Y71254*
X21371*
G37*
X44025D02*
G36*
G75*
G02X46082Y77301I9917J0D01*
G01*
X36918*
G75*
G02X39271Y71254I-6595J-6048*
G01*
X44025*
G37*
X63862D02*
G36*
G75*
G02X63752Y69784I-9919J-1D01*
G01*
X70146Y63391*
X79811*
G75*
G02X81816I1002J-4519*
G01*
X94513*
X96615Y65492*
Y69939*
X102090*
G75*
G02X103977I944J-4419*
G01*
X109453*
Y61100*
X105004*
X99580Y55677*
G75*
G02X96385Y54354I-3195J3195*
G01*
X85332*
Y52750*
X119189*
Y63075*
G75*
G02X120512Y66270I4519J0*
G01*
X123588Y69346*
Y71254*
X108485*
Y71171*
X97583*
Y71254*
X84012*
Y66482*
X73252*
Y71254*
X63862*
G37*
X73252D02*
G36*
Y77301D01*
X61804*
G75*
G02X63862Y71254I-7859J-6048*
G01*
X73252*
G37*
X97583D02*
G36*
Y77301D01*
X84012*
Y71254*
X97583*
G37*
X123587D02*
G36*
Y77301D01*
X108485*
Y71254*
X123587*
G37*
X132625D02*
G36*
Y67474D01*
G75*
G02X131302Y64280I-4519J0*
G01*
X128226Y61203*
Y45044*
G75*
G02X128796Y44148I-4518J-3505*
G01*
X144569*
X161656Y61235*
G75*
G02X163500Y62000I1845J-1845*
G01*
X165225*
Y64661*
X163077*
G75*
G02X161965Y64413I-1112J2360*
G01*
X155796*
Y61459*
X145457*
Y71254*
X143804*
Y62427*
X135402*
Y71254*
X132625*
G37*
X135402D02*
G36*
Y71616D01*
X143804*
Y71254*
X145457*
Y72585*
X155256*
X151075Y76766*
G75*
G02X150311Y78611I1845J1845*
G01*
Y99508*
X133670*
Y93596*
X122544*
Y96899*
X122064*
G75*
G02X109927Y99508I-5788J2609*
G01*
X108269*
G75*
G02X97508I-5381*
G01*
X13289*
Y77302*
X23724*
G75*
G02X30321Y80204I6597J-6048*
G01*
G75*
G02X36918Y77302J-8950*
G01*
X46082*
G75*
G02X53943Y81172I7861J-6048*
G01*
G75*
G02X61804Y77302J-9919*
G01*
X73252*
Y82758*
X84012*
Y77302*
X97583*
Y78069*
X108485*
Y77302*
X123588*
Y82573*
X122544*
Y83222*
X117424*
X114727Y80525*
G75*
G02X111532Y79202I-3195J3195*
G01*
X103033*
G75*
G02X102089Y79301J4520*
G01*
X96615*
Y88140*
X102093*
G75*
G02X103033Y88239I940J-4419*
G01*
X109660*
X112357Y90935*
G75*
G02X115552Y92259I3195J-3195*
G01*
X122544*
Y92907*
X133670*
Y82573*
X132625*
Y71254*
X135402*
G37*
X13289Y105919D02*
G36*
Y99508D01*
X97508*
G75*
G02X108269I5381*
G01*
X109927*
G75*
G02X122064Y102117I6349*
G01*
X122544*
Y103931*
X133670*
Y99508*
X150311*
Y105919*
X63911*
G75*
G02X59022Y101031I-4889*
G01*
G75*
G02X54133Y105919J4889*
G01*
X13289*
G37*
X54133D02*
G36*
G75*
G02X59022Y110808I4889D01*
G01*
G75*
G02X63911Y105919J-4889*
G01*
X150311*
Y112161*
X149201Y113271*
X59199*
G75*
G02X57354Y114035J2609*
G01*
X49047Y122342*
G75*
G02X48283Y124187I1845J1845*
G01*
Y126744*
G75*
G02X47707Y127976I2609J1970*
G01*
X31111*
Y126006*
X19985*
Y136344*
X31111*
Y134375*
X32642*
Y142903*
X31111Y141372*
Y137030*
X19985*
Y147368*
X24327*
X29223Y152264*
G75*
G02X32418Y153587I3195J-3195*
G01*
X32642*
Y154238*
X35006*
Y181490*
G75*
G02X35943Y183753I3200J0*
G01*
X45723Y193533*
X25061*
G75*
G02X21325Y176013I-3736J-8361*
G01*
G75*
G02X13289Y180780J9158*
G01*
Y105919*
X54133*
G37*
X269348D02*
G36*
Y99508D01*
X270580*
G75*
G02X277274Y103266I3875J939*
G01*
X281033Y99508*
X287658*
Y105919*
X269348*
G37*
X287658D02*
G36*
Y106270D01*
X296843*
Y105919*
X330087*
G75*
G02X334945Y108621I4858J-3017*
G01*
G75*
G02X339803Y105919J-5719*
G01*
X349076*
G75*
G02X352745Y107652I3669J-3017*
G01*
G75*
G02X356414Y105919J-4750*
G01*
X358752*
Y111136*
X319912*
G75*
G02X315174Y106051I-4738J-335*
G01*
G75*
G02X310435Y111136J4750*
G01*
X280750*
G75*
G02X271250I-4750*
G01*
X269947*
G75*
G02Y111096I-5725J-20*
G01*
G75*
G02X269348Y108547I-5719*
G01*
Y105919*
X287658*
G37*
X296843D02*
G36*
Y99508D01*
X309515*
G75*
G02X315213Y104748I5698J-478*
G01*
G75*
G02X319661Y102623J-5719*
G01*
X329233*
G75*
G02X330087Y105919I5712J279*
G01*
X296843*
G37*
X339803D02*
G36*
G75*
G02X339547Y99508I-4858J-3017D01*
G01*
X349422*
G75*
G02X349076Y105919I3323J3394*
G01*
X339803*
G37*
X356414D02*
G36*
G75*
G02X356068Y99508I-3669J-3017D01*
G01*
X358752*
Y105919*
X356414*
G37*
X13289Y20585D02*
G36*
Y14301D01*
G75*
G02X21788Y20048I8499J-3411*
G01*
G75*
G02X29196Y16274J-9158*
G01*
X78858*
G75*
G02X76103Y20585I1994J4311*
G01*
X13289*
G37*
X85603D02*
G36*
G75*
G02X82847Y16274I-4750D01*
G01*
X156103*
Y20474*
X165288*
Y16274*
X196229*
Y19766*
X205418*
Y16274*
X230961*
Y20585*
X195028*
Y17167*
X183508*
Y31443*
X186570*
X180676Y37338*
X175174Y31837*
Y31443*
X178099*
Y17167*
X166579*
Y20585*
X128340*
G75*
G02X123746Y17045I-4593J1211*
G01*
G75*
G02X119153Y20585J4750*
G01*
X85603*
G37*
X230961D02*
G36*
Y21632D01*
X251000*
Y20585*
X265205*
Y21632*
X285241*
Y20585*
X298737*
Y21612*
X318776*
Y20585*
X330441*
Y21632*
X350477*
Y20585*
X358752*
Y77302*
X357495*
G75*
G02X352745Y72552I-4750*
G01*
G75*
G02X347995Y77302J4750*
G01*
X340663*
G75*
G02X334945Y71584I-5719*
G01*
G75*
G02X329227Y77382J5719*
G01*
X328170Y78438*
X327300*
Y76864*
X316965*
Y77302*
X316276*
Y76864*
X307574*
X306439Y75729*
G75*
G02X306454Y75358I-4505J-372*
G01*
Y55378*
G75*
G02X305130Y52183I-4519J0*
G01*
X302640Y49693*
G75*
G02X299445Y48369I-3195J3195*
G01*
X298028*
Y47719*
X287212*
Y47033*
X298028*
Y36695*
X295076*
Y35801*
G75*
G02X294312Y33956I-2609*
G01*
X291428Y31072*
G75*
G02X289583Y30308I-1845J1845*
G01*
X255292*
G75*
G02X253447Y31072J2609*
G01*
X253304Y31216*
X253278Y31191*
G75*
G02X251433Y30426I-1845J1845*
G01*
X234741*
G75*
G02X232896Y31191J2609*
G01*
X229776Y34311*
G75*
G02X229011Y36156I1845J1845*
G01*
Y39916*
X214469Y54459*
G75*
G02X208598Y53015I-3399J1165*
G01*
X207205*
G75*
G02X206360Y51161I-3927J671*
G01*
G75*
G02X206278Y48026I-3273J-1482*
G01*
X214071*
G75*
G02X220135Y45417I2471J-2609*
G01*
G75*
G02X214071Y42808I-3593*
G01*
X200165*
G75*
G02X198320Y43572J2609*
G01*
X196732Y45161*
G75*
G02X190481Y48707I-3104J1812*
G01*
X184428*
Y40965*
X191113Y34280*
G75*
G02X191877Y32435I-1845J-1845*
G01*
Y31443*
X195028*
Y27505*
X195260*
Y31758*
X206386*
Y21419*
X199922*
G75*
G02X198540Y21106I-1382J2886*
G01*
X195028*
Y20585*
X230961*
G37*
X251000D02*
G36*
Y16274D01*
X265205*
Y20585*
X251000*
G37*
X285241D02*
G36*
Y16274D01*
X298737*
Y20585*
X285241*
G37*
X318776D02*
G36*
Y16274D01*
X330441*
Y20585*
X318776*
G37*
X350477D02*
G36*
Y16274D01*
X358752*
Y20585*
X350477*
G37*
X269348Y99508D02*
G36*
Y93549D01*
X279978Y82918*
X287032*
Y83569*
X298158*
Y83076*
X298894*
G75*
G02X301627Y82194I0J-4676*
G01*
X304677Y85244*
G75*
G02X305941Y86096I2819J-2819*
G01*
Y87986*
X316276*
Y77302*
X316965*
Y87986*
X318736*
Y89001*
X314362Y93375*
G75*
G02X309515Y99508I851J5655*
G01*
X296843*
Y97872*
X287658*
Y99508*
X281033*
X285506Y95034*
X286689*
Y96215*
X297811*
Y85880*
X286689*
Y87060*
X283855*
G75*
G02X281035Y88228J3987*
G01*
X271636Y97628*
G75*
G02X270580Y99508I2819J2819*
G01*
X269348*
G37*
X339547D02*
G36*
G75*
G02X334945Y97184I-4602J3394D01*
G01*
G75*
G02X334185Y97235I1J5719*
G01*
G75*
G02X331072Y95436I-3113J1795*
G01*
X321907*
X324534Y92809*
G75*
G02X325529Y90407I-2402J-2402*
G01*
Y87986*
X327300*
Y86412*
X329822*
G75*
G02X332641Y85244J-3987*
G01*
X334865Y83021*
G75*
G02X334945I40J-5724*
G01*
G75*
G02X340663Y77302J-5719*
G01*
X347995*
G75*
G02X352745Y82052I4750*
G01*
G75*
G02X357495Y77302J-4750*
G01*
X358752*
Y99508*
X356068*
G75*
G02X352745Y98152I-3323J3394*
G01*
G75*
G02X349422Y99508J4750*
G01*
X339547*
G37*
X29196Y16274D02*
G36*
G75*
G02X25502Y2519I-7409J-5384D01*
G01*
X358752*
Y16274*
X350477*
Y9596*
X330441*
Y16274*
X318776*
Y9577*
X298737*
Y16274*
X285241*
Y9596*
X265205*
Y16274*
X251000*
Y9596*
X230961*
Y16274*
X205418*
Y11364*
X196229*
Y16274*
X165288*
Y12073*
X156103*
Y16274*
X82847*
G75*
G02X80853Y15835I-1994J4311*
G01*
G75*
G02X78858Y16274J4750*
G01*
X29196*
G37*
X271250Y111136D02*
G36*
G75*
G02X280750I4750D01*
G01*
X310435*
G75*
G02X315174Y115551I4738J-335*
G01*
G75*
G02X319912Y111136J-4750*
G01*
X358752*
Y118798*
X356835*
G75*
G02X352085Y114048I-4750*
G01*
G75*
G02X347335Y118798J4750*
G01*
X340004*
G75*
G02X334285Y113080I-5719*
G01*
G75*
G02X330298Y122898J5719*
G01*
Y132484*
X322905*
G75*
G02X313746Y123326I-9158*
G01*
G75*
G02X304588Y132484J9158*
G01*
X296315*
Y130671*
X285981*
Y141797*
X288288*
G75*
G02X288329Y141839I2867J-2772*
G01*
X292901Y146411*
X283521*
Y141797*
X285292*
Y130671*
X283718*
Y127209*
G75*
G02X282665Y124668I-3593*
G01*
X269891Y111894*
G75*
G02X269947Y111136I-5665J-799*
G01*
X271250*
G37*
X280873Y182868D02*
G36*
Y161345D01*
X282693Y159526*
G75*
G02X283099Y159035I-2374J-2374*
G01*
Y166801*
X292288*
Y166657*
X307225*
G75*
G02X311975Y171407I4750*
G01*
G75*
G02X316725Y166657J-4750*
G01*
X330230*
Y179906*
G75*
G02X330117Y180018I3979J4091*
G01*
X324251*
G75*
G02X324142Y179915I-2790J2852*
G01*
Y177305*
X313804*
Y182868*
X312150*
Y178274*
X303748*
Y182868*
X280873*
G37*
X303748D02*
G36*
Y187463D01*
X312150*
Y182868*
X313804*
Y188431*
X324142*
Y187992*
X330117*
G75*
G02X334217Y189723I4099J-3987*
G01*
G75*
G02X339821Y182868J-5719*
G01*
X347405*
G75*
G02X352017Y188755I4612J1137*
G01*
G75*
G02X356628Y182868J-4750*
G01*
X358752*
Y193533*
X280333*
G75*
G02X280873Y191707I-2817J-1826*
G01*
Y182868*
X303748*
G37*
X339821D02*
G36*
G75*
G02X338204Y179906I-5604J1137D01*
G01*
Y166657*
X358752*
Y182868*
X356628*
G75*
G02X352017Y179255I-4612J1137*
G01*
G75*
G02X347405Y182868J4750*
G01*
X339821*
G37*
X292288Y166657D02*
G36*
Y158404D01*
X283593*
X285250Y156746*
X293256*
Y146767*
X302994Y156504*
G75*
G02X305813Y157672I2819J-2819*
G01*
X307020*
G75*
G02X316522Y158405I4994J-2786*
G01*
X328498*
G75*
G02X330230Y162504I5719*
G01*
Y166657*
X316725*
G75*
G02X311975Y161907I-4750*
G01*
G75*
G02X307225Y166657J4750*
G01*
X292288*
G37*
X338204D02*
G36*
Y162504D01*
G75*
G02X339935Y158405I-3987J-4100*
G01*
X347267*
G75*
G02X352017Y163155I4750*
G01*
G75*
G02X356767Y158405J-4750*
G01*
X358752*
Y166657*
X338204*
G37*
X304588Y132484D02*
G36*
G75*
G02X313746Y141643I9158D01*
G01*
G75*
G02X322905Y132484J-9158*
G01*
X330298*
Y140299*
G75*
G02X329685Y141002I3986J4098*
G01*
X326355*
G75*
G02X323953Y141997J3396*
G01*
X315555Y150395*
G75*
G02X309608Y149698I-3541J4491*
G01*
X307465*
X296315Y138548*
Y132484*
X304588*
G37*
X316522Y158405D02*
G36*
G75*
G02X316687Y158182I-4504J-3523D01*
G01*
G75*
G02X318269Y157287I-820J-3296*
G01*
X327761Y147795*
X329685*
G75*
G02X334285Y150117I4600J-3396*
G01*
G75*
G02X340004Y144398J-5719*
G01*
X347335*
G75*
G02X352085Y149148I4750*
G01*
G75*
G02X356835Y144398J-4750*
G01*
X358752*
Y158405*
X356767*
G75*
G02X352017Y153655I-4750*
G01*
G75*
G02X347267Y158405J4750*
G01*
X339935*
G75*
G02X334217Y152686I-5719*
G01*
G75*
G02X328498Y158405J5719*
G01*
X316522*
G37*
X347335Y118798D02*
G36*
G75*
G02X352085Y123548I4750D01*
G01*
G75*
G02X356835Y118798J-4750*
G01*
X358752*
Y144398*
X356835*
G75*
G02X352085Y139648I-4750*
G01*
G75*
G02X347335Y144398J4750*
G01*
X340004*
G75*
G02X338272Y140299I-5719J0*
G01*
Y122898*
G75*
G02X340004Y118798I-3987J-4100*
G01*
X347335*
G37*
X13289Y189563D02*
G75*
G02X17589Y193533I8037J-4392D01*
G01*
X13289*
Y189563*
G36*
G75*
G02X17589Y193533I8037J-4392*
G01*
X13289*
Y189563*
G37*
X21325Y192061D02*
G75*
G03Y178281J-6890D01*
G01*
G75*
G03Y192061J6890*
G01*
X21788Y17780D02*
G75*
G03Y4000J-6890D01*
G01*
G75*
G03Y17780J6890*
G01*
X32954Y143215D02*
X43768D01*
Y141245*
X53678*
G75*
G02X55940Y140308I0J-3200*
G01*
X57885Y138362*
G75*
G02X58630Y139530I3007J-1094*
G01*
X62242Y143143*
G75*
G02X64504Y144080I2262J-2263*
G01*
X73075*
Y146049*
X84201*
Y135711*
X73075*
Y137680*
X65830*
X64543Y136394*
G75*
G02X68990Y134461I1349J-2978*
G01*
X73075*
Y135026*
X84201*
Y134375*
X85390*
G75*
G02Y125338J-4519*
G01*
X84201*
Y124687*
X73075*
Y127668*
X68990*
G75*
G02X63392Y126607I-3098J1046*
G01*
G75*
G02X58501Y126484I-2500J2107*
G01*
Y123880*
X60762Y121619*
X152683*
G75*
G02X154528Y120855J-2609*
G01*
X158613Y116770*
G75*
G02X159377Y114925I-1845J-1845*
G01*
Y80204*
X165225Y74357*
Y83659*
X167590*
Y83745*
G75*
G02Y89766I2609J3011*
G01*
Y111679*
X116882Y162387*
G75*
G02X116118Y164232I1845J1845*
G01*
Y179778*
X103709*
Y181598*
X95056*
G75*
G02X92793Y182535I0J3200*
G01*
X85748Y189580*
X62199*
G75*
G02X59092Y178803I-3177J-4920*
G01*
Y165947*
X59237Y166092*
Y178274*
X70756*
Y163998*
X66193*
X64092Y161897*
Y158944*
G75*
G02X69050Y157064I1800J-2730*
G01*
X75563*
X78726Y160227*
Y163998*
X76166*
Y178274*
X87685*
Y163998*
X85125*
Y158902*
G75*
G02X84188Y156639I-3200J0*
G01*
X79151Y151602*
G75*
G02X76889Y150665I-2262J2263*
G01*
X69050*
G75*
G02X63392Y149406I-3157J849*
G01*
G75*
G02X58392I-2500J2107*
G01*
G75*
G02X52853Y150309I-2500J2107*
G01*
G75*
G02X48591Y151514I-1961J1205*
G01*
Y156215*
G75*
G02X52693Y157648I2301*
G01*
Y181530*
G75*
G02X53301Y183406I3200*
G01*
G75*
G02X55845Y189580I5721J1254*
G01*
X50820*
X41405Y180165*
Y154238*
X43768*
Y143900*
X33639*
X32954Y143215*
X54114Y144295D02*
G75*
G02X59363I2625D01*
G01*
G75*
G02X54114I-2625*
G01*
X43768D02*
G36*
Y143900D01*
X33639*
X32954Y143215*
X43768*
Y141245*
X53678*
G75*
G02X55940Y140308I0J-3200*
G01*
X57885Y138362*
G75*
G02X58630Y139530I3007J-1094*
G01*
X62242Y143143*
G75*
G02X64504Y144080I2262J-2263*
G01*
X73075*
Y144295*
X59363*
G75*
G02X54114I-2625*
G01*
X43768*
G37*
X54114D02*
G36*
G75*
G02X59363I2625D01*
G01*
X73075*
Y146049*
X84201*
Y135711*
X73075*
Y137680*
X65830*
X64543Y136394*
G75*
G02X68990Y134461I1349J-2978*
G01*
X73075*
Y135026*
X84201*
Y134375*
X85390*
G75*
G02Y125338J-4519*
G01*
X84201*
Y124687*
X73075*
Y127668*
X68990*
G75*
G02X63392Y126607I-3098J1046*
G01*
G75*
G02X58501Y126484I-2500J2107*
G01*
Y123880*
X60762Y121619*
X152683*
G75*
G02X154528Y120855J-2609*
G01*
X158613Y116770*
G75*
G02X159377Y114925I-1845J-1845*
G01*
Y80204*
X165225Y74357*
Y83659*
X167590*
Y83745*
G75*
G02Y89766I2609J3011*
G01*
Y111679*
X116882Y162387*
G75*
G02X116118Y164232I1845J1845*
G01*
Y179778*
X103709*
Y181598*
X95056*
G75*
G02X92793Y182535I0J3200*
G01*
X85748Y189580*
X62199*
G75*
G02X59092Y178803I-3177J-4920*
G01*
Y165947*
X59237Y166092*
Y178274*
X70756*
Y163998*
X66193*
X64092Y161897*
Y158944*
G75*
G02X69050Y157064I1800J-2730*
G01*
X75563*
X78726Y160227*
Y163998*
X76166*
Y178274*
X87685*
Y163998*
X85125*
Y158902*
G75*
G02X84188Y156639I-3200J0*
G01*
X79151Y151602*
G75*
G02X76889Y150665I-2262J2263*
G01*
X69050*
G75*
G02X63392Y149406I-3157J849*
G01*
G75*
G02X58392I-2500J2107*
G01*
G75*
G02X52853Y150309I-2500J2107*
G01*
G75*
G02X48591Y151514I-1961J1205*
G01*
Y156215*
G75*
G02X52693Y157648I2301*
G01*
Y181530*
G75*
G02X53301Y183406I3200*
G01*
G75*
G02X55845Y189580I5721J1254*
G01*
X50820*
X41405Y180165*
Y154238*
X43768*
Y144295*
X54114*
G37*
X90845Y193533D02*
X96381Y187997D01*
X103709*
Y189817*
X105345*
G75*
G02X106325Y191904I3382J-315*
G01*
X107954Y193533*
X90845*
G36*
X96381Y187997*
X103709*
Y189817*
X105345*
G75*
G02X106325Y191904I3382J-315*
G01*
X107954Y193533*
X90845*
G37*
X121336Y179778D02*
Y165313D01*
X136118Y150531*
Y179778*
X133709*
Y189806*
X123744*
Y179778*
X121336*
X124678Y180746D02*
Y188848D01*
X132776*
Y180746*
X124678*
X123744Y184797D02*
G36*
Y179778D01*
X121336*
Y165313*
X136118Y150531*
Y179778*
X133709*
Y184797*
X132776*
Y180746*
X124678*
Y184797*
X123744*
G37*
X124678D02*
G36*
Y188848D01*
X132776*
Y184797*
X133709*
Y189806*
X123744*
Y184797*
X124678*
G37*
X141336Y179778D02*
Y151331D01*
X173952Y118714*
Y179226*
X171544*
Y189266*
X192516*
X191976Y189806*
X153744*
Y179778*
X141336*
X170611Y188297D02*
Y180195D01*
X162512*
Y188297*
X170611*
X153744Y184246D02*
G36*
Y179778D01*
X141336*
Y151331*
X173952Y118714*
Y179226*
X171544*
Y184246*
X170611*
Y180195*
X162512*
Y184246*
X153744*
G37*
X162512D02*
G36*
Y188297D01*
X170611*
Y184246*
X171544*
Y189266*
X192516*
X191976Y189806*
X153744*
Y184246*
X162512*
G37*
X155796Y69631D02*
X158210D01*
X155796Y72045*
Y69631*
G36*
X158210*
X155796Y72045*
Y69631*
G37*
X172808Y89766D02*
G75*
G02X173300Y89256I-2609J-3010D01*
G01*
Y91734*
X177240*
Y108047*
X172808Y112479*
Y89766*
G36*
G75*
G02X173300Y89256I-2609J-3010*
G01*
Y91734*
X177240*
Y108047*
X172808Y112479*
Y89766*
G37*
X182458Y91734D02*
X183150D01*
Y108013*
X182458Y108705*
Y91734*
G36*
X183150*
Y108013*
X182458Y108705*
Y91734*
G37*
X184604Y154648D02*
Y119608D01*
X188431Y115781*
Y117785*
X188020*
Y126722*
X188721*
G75*
G02X189195Y127370I2319J-1197*
G01*
X194874Y133050*
G75*
G02X196719Y133814I1845J-1845*
G01*
X210294*
X211049Y134569*
Y156518*
X209023*
Y147419*
X209059*
Y140180*
G75*
G02X209633Y138232I-3020J-1948*
G01*
G75*
G02X202446I-3593*
G01*
G75*
G02X202455Y138482I3593J1*
G01*
X193020*
Y139451*
X188989*
Y146451*
X193020*
Y146651*
X192647Y147024*
G75*
G02X191767Y149148I2123J2123*
G01*
Y149384*
X189209*
Y151548*
X188865*
G75*
G02X186741Y152428J3003*
G01*
X184980Y154190*
G75*
G02X184604Y154648I2122J2123*
G01*
X188415Y136490D02*
G75*
G02X193665I2625D01*
G01*
G75*
G02X188415I-2625*
G01*
X184604D02*
G36*
Y119608D01*
X188431Y115781*
Y117785*
X188020*
Y126722*
X188721*
G75*
G02X189195Y127370I2319J-1197*
G01*
X194874Y133050*
G75*
G02X196719Y133814I1845J-1845*
G01*
X210294*
X211049Y134569*
Y156518*
X209023*
Y147419*
X209059*
Y140180*
G75*
G02X209633Y138232I-3020J-1948*
G01*
G75*
G02X202897Y136490I-3593*
G01*
X193665*
G75*
G02X188415I-2625*
G01*
X184604*
G37*
X188415D02*
G36*
G75*
G02X193665I2625D01*
G01*
X202897*
G75*
G02X202446Y138232I3143J1742*
G01*
G75*
G02X202455Y138482I3593J1*
G01*
X193020*
Y139451*
X188989*
Y146451*
X193020*
Y146651*
X192647Y147024*
G75*
G02X191767Y149148I2123J2123*
G01*
Y149384*
X189209*
Y151548*
X188865*
G75*
G02X186741Y152428J3003*
G01*
X184980Y154190*
G75*
G02X184604Y154648I2122J2123*
G01*
Y136490*
X188415*
G37*
X190106Y170742D02*
X195819D01*
G75*
G02X194931Y172711I1736J1969*
G01*
G75*
G02X200180I2625*
G01*
G75*
G02X199292Y170742I-2625*
G01*
X200331*
Y169168*
X201819*
Y176911*
X211008*
Y168510*
X204599*
G75*
G02X205067Y168116I-2072J-2937*
G01*
X206326Y166856*
X211977*
Y161393*
X231449Y180865*
G75*
G02X233294Y181629I1845J-1845*
G01*
X242733*
G75*
G02X244578Y180865J-2609*
G01*
X245754Y179689*
Y190003*
X222390*
Y181163*
X212839*
Y190003*
X199958*
Y189266*
X201579*
Y179226*
X198367*
X190106Y170965*
Y170742*
G36*
X195819*
G75*
G02X194931Y172711I1736J1969*
G01*
G75*
G02X200180I2625*
G01*
G75*
G02X199292Y170742I-2625*
G01*
X200331*
Y169168*
X201819*
Y176911*
X211008*
Y168510*
X204599*
G75*
G02X205067Y168116I-2072J-2937*
G01*
X206326Y166856*
X211977*
Y161393*
X231449Y180865*
G75*
G02X233294Y181629I1845J-1845*
G01*
X242733*
G75*
G02X244578Y180865J-2609*
G01*
X245754Y179689*
Y190003*
X222390*
Y181163*
X212839*
Y190003*
X199958*
Y189266*
X201579*
Y179226*
X198367*
X190106Y170965*
Y170742*
G37*
X193429Y65959D02*
X193503Y65884D01*
G75*
G02X194267Y64039I-1845J-1845*
G01*
Y58656*
X198304*
Y78440*
X196300*
G75*
G02X193432Y74047I-1510J-2147*
G01*
Y66098*
G75*
G02X193429Y65959I-2613J-3*
G01*
G36*
X193503Y65884*
G75*
G02X194267Y64039I-1845J-1845*
G01*
Y58656*
X198304*
Y78440*
X196300*
G75*
G02X193432Y74047I-1510J-2147*
G01*
Y66098*
G75*
G02X193429Y65959I-2613J-3*
G01*
G37*
X193649Y111535D02*
G75*
G02X193757Y111556I722J-3524D01*
G01*
G75*
G02X193649Y111774I2282J1265*
G01*
Y111535*
G36*
G75*
G02X193757Y111556I722J-3524*
G01*
G75*
G02X193649Y111774I2282J1265*
G01*
Y111535*
G37*
X198391Y91734D02*
X200178D01*
Y89631*
X221454*
G75*
G02X227340Y86864I2293J-2767*
G01*
G75*
G02X225372Y83659I-3593*
G01*
X226527*
X234119Y91251*
Y96719*
X234710*
Y100841*
X233874Y101677*
G75*
G02X232880Y104079I2402J2402*
G01*
Y110429*
G75*
G02Y111764I3395J667*
G01*
Y115112*
X231107*
Y119643*
X209059*
Y117785*
X198649*
Y113900*
X201123Y111426*
G75*
G02X201887Y109581I-1845J-1845*
G01*
Y106431*
X204445*
Y95309*
X201687*
G75*
G02X201123Y94467I-2409J1002*
G01*
X198391Y91734*
X206103Y96278D02*
Y105463D01*
X214500*
Y96278*
X206103*
X204445Y100870D02*
G36*
Y95309D01*
X201687*
G75*
G02X201123Y94467I-2409J1002*
G01*
X198391Y91734*
X200178*
Y89631*
X221454*
G75*
G02X227340Y86864I2293J-2767*
G01*
G75*
G02X225372Y83659I-3593*
G01*
X226527*
X234119Y91251*
Y96719*
X234710*
Y100841*
X234681Y100870*
X214500*
Y96278*
X206103*
Y100870*
X204445*
G37*
X206103D02*
G36*
Y105463D01*
X214500*
Y100870*
X234681*
X233874Y101677*
G75*
G02X232880Y104079I2402J2402*
G01*
Y110429*
G75*
G02Y111764I3395J667*
G01*
Y115112*
X231107*
Y119643*
X209059*
Y117785*
X198649*
Y113900*
X201123Y111426*
G75*
G02X201887Y109581I-1845J-1845*
G01*
Y106431*
X204445*
Y100870*
X206103*
G37*
X209059Y124861D02*
X231107D01*
Y126234*
X241445*
Y115112*
X239672*
Y114493*
X259628*
G75*
G02X264635Y116800I4600J-3396*
G01*
X276531Y128697*
Y130671*
X274957*
Y141797*
X276728*
Y155996*
X275143Y157581*
G75*
G02X274159Y159955I2374J2374*
G01*
Y177226*
X265342*
Y176738*
X269870*
Y166793*
X258351*
Y168549*
X256878*
Y166793*
X255893*
Y164128*
G75*
G02X255129Y162283I-2609*
G01*
X251656Y158810*
G75*
G02X244484Y159138I-3578J328*
G01*
G75*
G02X248195Y162729I3593*
G01*
X250675Y165209*
Y166793*
X249689*
Y167581*
X248217*
Y166793*
X243886*
Y165219*
X242901*
Y148388*
X250493Y140796*
G75*
G02X251257Y138951I-1845J-1845*
G01*
Y126234*
X252469*
Y115112*
X242130*
Y126234*
X246039*
Y126439*
X235083*
Y135990*
X246039*
Y137870*
X238447Y145462*
G75*
G02X237683Y147307I1845J1845*
G01*
Y157254*
G75*
G02X232152Y156529I-3060J1883*
G01*
X223449*
X221611Y154691*
Y135112*
G75*
G02X220847Y133267I-2609*
G01*
X213456Y125876*
G75*
G02X211611Y125111I-1845J1845*
G01*
X209059*
Y124861*
X257524Y126439D02*
Y135990D01*
X268650*
Y126439*
X257524*
X251257Y131215D02*
G36*
Y126234D01*
X252469*
Y115112*
X242130*
Y126234*
X246039*
Y126439*
X235083*
Y135990*
X246039*
Y137870*
X238447Y145462*
G75*
G02X237683Y147307I1845J1845*
G01*
Y157254*
G75*
G02X232152Y156529I-3060J1883*
G01*
X223449*
X221611Y154691*
Y135112*
G75*
G02X220847Y133267I-2609*
G01*
X213456Y125876*
G75*
G02X211611Y125111I-1845J1845*
G01*
X209059*
Y124861*
X231107*
Y126234*
X241445*
Y115112*
X239672*
Y114493*
X259628*
G75*
G02X264635Y116800I4600J-3396*
G01*
X276531Y128697*
Y130671*
X274957*
Y131215*
X268650*
Y126439*
X257524*
Y131215*
X251257*
G37*
X257524D02*
G36*
Y135990D01*
X268650*
Y131215*
X274957*
Y141797*
X276728*
Y155996*
X275143Y157581*
G75*
G02X274159Y159955I2374J2374*
G01*
Y177226*
X265342*
Y176738*
X269870*
Y166793*
X258351*
Y168549*
X256878*
Y166793*
X255893*
Y164128*
G75*
G02X255129Y162283I-2609*
G01*
X251656Y158810*
G75*
G02X244484Y159138I-3578J328*
G01*
G75*
G02X248195Y162729I3593*
G01*
X250675Y165209*
Y166793*
X249689*
Y167581*
X248217*
Y166793*
X243886*
Y165219*
X242901*
Y148388*
X250493Y140796*
G75*
G02X251257Y138951I-1845J-1845*
G01*
Y131215*
X257524*
G37*
X216267Y136067D02*
X216393Y136193D01*
Y155772*
G75*
G02X217157Y157617I2609*
G01*
X220524Y160983*
G75*
G02X222369Y161747I1845J-1845*
G01*
X232152*
G75*
G02X237683Y161021I2471J-2609*
G01*
Y165219*
X236697*
Y166793*
X232367*
Y174403*
X216267Y158303*
Y136067*
G36*
X216393Y136193*
Y155772*
G75*
G02X217157Y157617I2609*
G01*
X220524Y160983*
G75*
G02X222369Y161747I1845J-1845*
G01*
X232152*
G75*
G02X237683Y161021I2471J-2609*
G01*
Y165219*
X236697*
Y166793*
X232367*
Y174403*
X216267Y158303*
Y136067*
G37*
X223428Y78441D02*
X232819Y69050D01*
X257495*
G75*
G02X255069Y71667I198J2617*
G01*
G75*
G02X260318I2625*
G01*
G75*
G02X257891Y69050I-2625*
G01*
X268089*
X269121Y70082*
G75*
G02X276306Y69984I3592J-98*
G01*
G75*
G02X275858Y68246I-3593*
G01*
G75*
G02X281887Y65604I2436J-2642*
G01*
G75*
G02X279941Y62411I-3593*
G01*
X281295Y61057*
G75*
G02X282436Y60837I-98J-3593*
G01*
G75*
G02X282758Y61229I2167J-1454*
G01*
X287032Y65503*
Y72545*
X297417*
Y73230*
X287032*
Y73881*
X278107*
G75*
G02X274912Y75205I0J4519*
G01*
X262174Y87943*
Y86380*
X244158*
Y86435*
X242095*
Y86380*
X236627*
X229453Y79206*
G75*
G02X227608Y78441I-1845J1845*
G01*
X223428*
X238418Y72833D02*
X230020D01*
Y78868*
X238418*
Y72833*
X226019Y75850D02*
G36*
X232819Y69050D01*
X257495*
G75*
G02X255069Y71667I198J2617*
G01*
G75*
G02X260318I2625*
G01*
G75*
G02X257891Y69050I-2625*
G01*
X268089*
X269121Y70082*
G75*
G02X276306Y69984I3592J-98*
G01*
G75*
G02X275858Y68246I-3593*
G01*
G75*
G02X281887Y65604I2436J-2642*
G01*
G75*
G02X279941Y62411I-3593*
G01*
X281295Y61057*
G75*
G02X282436Y60837I-98J-3593*
G01*
G75*
G02X282758Y61229I2167J-1454*
G01*
X287032Y65503*
Y72545*
X297417*
Y73230*
X287032*
Y73881*
X278107*
G75*
G02X274912Y75205I0J4519*
G01*
X274266Y75850*
X238418*
Y72833*
X230020*
Y75850*
X226019*
G37*
X230020D02*
G36*
Y78868D01*
X238418*
Y75850*
X274266*
X262174Y87943*
Y86380*
X244158*
Y86435*
X242095*
Y86380*
X236627*
X229453Y79206*
G75*
G02X227608Y78441I-1845J1845*
G01*
X223428*
X226019Y75850*
X230020*
G37*
X233923Y55663D02*
X236609Y52977D01*
X252428*
G75*
G02X254272Y52213J-2609*
G01*
X259981Y46504*
G75*
G02X260745Y44659I-1845J-1845*
G01*
Y43616*
X262122*
Y41058*
X280195*
X281994Y42856*
Y53961*
G75*
G02X277605Y57367I-796J3504*
G01*
X275707Y59265*
X250073*
G75*
G02X243874Y55663I-3226J-1584*
G01*
X233923*
G36*
X236609Y52977*
X252428*
G75*
G02X254272Y52213J-2609*
G01*
X259981Y46504*
G75*
G02X260745Y44659I-1845J-1845*
G01*
Y43616*
X262122*
Y41058*
X280195*
X281994Y42856*
Y53961*
G75*
G02X277605Y57367I-796J3504*
G01*
X275707Y59265*
X250073*
G75*
G02X243874Y55663I-3226J-1584*
G01*
X233923*
G37*
X239556Y175163D02*
X241028D01*
Y176411*
X239556*
Y175163*
G36*
X241028*
Y176411*
X239556*
Y175163*
G37*
X239672Y107700D02*
Y105485D01*
X240508Y104650*
G75*
G02X241257Y103516I-2401J-2402*
G01*
G75*
G02X245735Y97976I1869J-3069*
G01*
Y96770*
X247115*
Y96719*
X260311*
Y106931*
G75*
G02X259628Y107700I3919J4165*
G01*
X239672*
G36*
Y105485*
X240508Y104650*
G75*
G02X241257Y103516I-2401J-2402*
G01*
G75*
G02X245735Y97976I1869J-3069*
G01*
Y96770*
X247115*
Y96719*
X260311*
Y106931*
G75*
G02X259628Y107700I3919J4165*
G01*
X239672*
G37*
X252153Y177526D02*
X252548D01*
Y176738*
X255506*
G75*
G02X258549Y180754I2109J1563*
G01*
Y182778*
G75*
G02X264611Y186361I3396J1173*
G01*
Y188746*
X274159*
Y189846*
X252153*
Y177526*
G36*
X252548*
Y176738*
X255506*
G75*
G02X258549Y180754I2109J1563*
G01*
Y182778*
G75*
G02X264611Y186361I3396J1173*
G01*
Y188746*
X274159*
Y189846*
X252153*
Y177526*
G37*
X262122Y35526D02*
X288502D01*
X289671Y36695*
X286906*
Y40550*
G75*
G02X286448Y39931I-2303J1226*
G01*
X283121Y36604*
G75*
G02X281276Y35840I-1845J1845*
G01*
X262122*
Y35526*
G36*
X288502*
X289671Y36695*
X286906*
Y40550*
G75*
G02X286448Y39931I-2303J1226*
G01*
X283121Y36604*
G75*
G02X281276Y35840I-1845J1845*
G01*
X262122*
Y35526*
G37*
X274313Y66767D02*
X274894D01*
G75*
G02X275149Y67343I3400J-1161*
G01*
G75*
G02X274313Y66767I-2436J2641*
G01*
G36*
X274894*
G75*
G02X275149Y67343I3400J-1161*
G01*
G75*
G02X274313Y66767I-2436J2641*
G01*
G37*
X287212Y58057D02*
X297417D01*
Y62207*
X291115*
X287212Y58303*
Y58057*
G36*
X297417*
Y62207*
X291115*
X287212Y58303*
Y58057*
G37*
X313746Y139374D02*
G75*
G03Y125594J-6890D01*
G01*
G75*
G03Y139374J6890*
G01*
D02*
D14*
X21128Y30348D02*
X19128D01*
X22921Y71254D02*
X20921D01*
X23628Y27848D02*
Y25848D01*
Y32848D02*
Y34848D01*
X26128Y30348D02*
X28128D01*
X30321Y63854D02*
Y61854D01*
Y78654D02*
Y80654D01*
X34732Y52750D02*
X32732D01*
X37721Y71254D02*
X39721D01*
X42132Y45350D02*
Y43350D01*
Y60150D02*
Y62150D01*
X49532Y52750D02*
X51532D01*
X50142Y153865D02*
X48142D01*
X50892Y150765D02*
Y148765D01*
Y156965D02*
Y158965D01*
X55664Y144295D02*
X53664D01*
X55683Y105919D02*
X53683D01*
X56739Y143220D02*
Y141220D01*
Y145370D02*
Y147370D01*
X57813Y144295D02*
X59813D01*
X59022Y102581D02*
Y100581D01*
Y109258D02*
Y111258D01*
X62361Y105919D02*
X64361D01*
X74802Y74620D02*
X72802D01*
X77653Y20585D02*
X75653D01*
X78632Y68033D02*
Y66033D01*
Y81207D02*
Y83207D01*
X80853Y17385D02*
Y15385D01*
Y23785D02*
Y25785D01*
X82463Y74620D02*
X84463D01*
X84053Y20585D02*
X86053D01*
X99058Y99508D02*
X97058D01*
X99133Y74620D02*
X97133D01*
X102889Y95677D02*
Y93677D01*
Y103339D02*
Y105339D01*
X103033Y72720D02*
Y70720D01*
Y76520D02*
Y78520D01*
X106719Y99508D02*
X108719D01*
X106933Y74620D02*
X108933D01*
X120546Y21795D02*
X118546D01*
X123746Y18595D02*
Y16595D01*
Y24995D02*
Y26995D01*
X126227Y184797D02*
X124227D01*
X126946Y21795D02*
X128946D01*
X128727Y182297D02*
Y180297D01*
Y187297D02*
Y189297D01*
X131227Y184797D02*
X133227D01*
X136953Y67022D02*
X134953D01*
X139603Y63978D02*
Y61978D01*
Y70065D02*
Y72065D01*
X142252Y67022D02*
X144252D01*
X157652Y16274D02*
X155652D01*
X160695Y13624D02*
Y11624D01*
Y18923D02*
Y20923D01*
X163739Y16274D02*
X165739D01*
X164061Y184246D02*
X162061D01*
X166561Y181746D02*
Y179746D01*
Y186746D02*
Y188746D01*
X169061Y184246D02*
X171061D01*
X189965Y136490D02*
X187965D01*
X190540Y142952D02*
X188540D01*
X191040Y135415D02*
Y133415D01*
Y144902D02*
Y146902D01*
X192115Y136490D02*
X194115D01*
X196481Y172711D02*
X194481D01*
X197556Y173785D02*
Y175785D01*
X197780Y15565D02*
X195780D01*
X198630Y172711D02*
X200630D01*
X200823Y12915D02*
Y10915D01*
Y18215D02*
Y20215D01*
X203370Y172711D02*
X201370D01*
X203867Y15565D02*
X205867D01*
X206414Y170061D02*
Y168061D01*
Y175360D02*
Y177360D01*
X207652Y100870D02*
X205652D01*
X209457Y172711D02*
X211457D01*
X210302Y97827D02*
Y95827D01*
Y103913D02*
Y105913D01*
X212951Y100870D02*
X214951D01*
X231569Y75850D02*
X229569D01*
X234219Y74382D02*
Y72382D01*
Y77319D02*
Y79319D01*
X236869Y75850D02*
X238869D01*
X256540Y178301D02*
X254540D01*
X256619Y71667D02*
X254619D01*
X257615Y179376D02*
Y181376D01*
X257693Y72742D02*
Y74742D01*
X258768Y71667D02*
X260768D01*
X272800Y111136D02*
X270800D01*
X276000Y107936D02*
Y105936D01*
Y114336D02*
Y116336D01*
X279200Y111136D02*
X281200D01*
X284897Y165398D02*
X283044Y167252D01*
X286052Y162602D02*
X288052D01*
X289207Y102071D02*
X287207D01*
X290489Y159806D02*
X292343Y157953D01*
X290489Y165398D02*
X292343Y167252D01*
X292250Y99421D02*
Y97421D01*
Y104720D02*
Y106720D01*
X295294Y102071D02*
X297294D01*
X305300Y182868D02*
X303300D01*
X307949Y179825D02*
Y177825D01*
Y185911D02*
Y187911D01*
X308775Y166657D02*
X306775D01*
X310599Y182868D02*
X312599D01*
X311974Y110801D02*
X309974D01*
X311975Y163457D02*
Y161457D01*
Y169857D02*
Y171857D01*
X315174Y107601D02*
Y105601D01*
Y114001D02*
Y116001D01*
X315175Y166657D02*
X317175D01*
X318374Y110801D02*
X320374D01*
X348817Y158405D02*
X346817D01*
X348817Y184005D02*
X346817D01*
X348885Y118798D02*
X346885D01*
X348885Y144398D02*
X346885D01*
X349545Y77302D02*
X347545D01*
X349545Y102902D02*
X347545D01*
X352017Y155205D02*
Y153205D01*
Y161605D02*
Y163605D01*
Y180805D02*
Y178805D01*
Y187205D02*
Y189205D01*
X352085Y115598D02*
Y113598D01*
Y121998D02*
Y123998D01*
Y141198D02*
Y139198D01*
Y147598D02*
Y149598D01*
X352745Y74102D02*
Y72102D01*
Y80502D02*
Y82502D01*
Y99702D02*
Y97702D01*
Y106102D02*
Y108102D01*
X355217Y158405D02*
X357217D01*
X355217Y184005D02*
X357217D01*
X355285Y118798D02*
X357285D01*
X355285Y144398D02*
X357285D01*
X355945Y77302D02*
X357945D01*
X355945Y102902D02*
X357945D01*
D02*
D70*
X64996Y171136D03*
X81926D03*
X172339Y24305D03*
X189268D03*
D02*
D71*
X25548Y131175D03*
Y142199D03*
X38205Y138045D03*
Y149069D03*
X78638Y129856D03*
Y140880D03*
X128107Y87740D03*
Y98764D03*
X160695Y16274D03*
Y27297D03*
X194770Y154551D03*
Y165575D03*
X200823Y15565D03*
Y26589D03*
X206414Y161687D03*
Y172711D03*
X287693Y151579D03*
Y162602D03*
X292250Y91047D03*
Y102071D03*
X292467Y41864D03*
Y52888D03*
X292595Y67376D03*
Y78400D03*
D02*
D20*
X175909Y53681D03*
Y86760D03*
X177879Y53681D03*
Y86760D03*
X179849Y53681D03*
Y86760D03*
X181819Y53681D03*
Y86760D03*
X183789Y53681D03*
Y86760D03*
X185759Y53681D03*
Y86760D03*
X187719Y53681D03*
Y86760D03*
X189689Y53681D03*
Y86760D03*
X191658Y53681D03*
Y86760D03*
X193628Y53681D03*
Y86760D03*
X195598Y53681D03*
Y86760D03*
X197569Y53681D03*
Y86760D03*
D02*
D21*
X170199Y59391D03*
Y61361D03*
Y63331D03*
Y65301D03*
Y67270D03*
Y69241D03*
Y71200D03*
Y73170D03*
Y75140D03*
Y77110D03*
Y79080D03*
Y81050D03*
X203278Y59391D03*
Y61361D03*
Y63331D03*
Y65301D03*
Y67270D03*
Y69241D03*
Y71200D03*
Y73170D03*
Y75140D03*
Y77110D03*
Y79080D03*
Y81050D03*
D02*
D22*
X50892Y131065D03*
Y153865D03*
X55892Y131065D03*
Y153865D03*
X60892Y131065D03*
Y153865D03*
X65892Y131065D03*
Y153865D03*
D02*
D23*
X59022Y105919D03*
Y184659D03*
D02*
D24*
X191040Y122252D03*
Y142952D03*
X196040Y122252D03*
Y142952D03*
X201040Y122252D03*
Y142952D03*
X206040Y122252D03*
Y142952D03*
D02*
D25*
X139603Y67022D03*
X150626D03*
X199278Y100870D03*
X210302D03*
X236276Y120673D03*
X247300D03*
X280124Y136234D03*
X291148D03*
X307949Y182868D03*
X311109Y82425D03*
X318973Y182868D03*
X322132Y82425D03*
D02*
D26*
X235981Y15614D03*
X245981D03*
X270223D03*
X280223D03*
X303756Y15594D03*
X313756D03*
X335459Y15614D03*
X345459D03*
D02*
D27*
X102889Y99508D03*
X116276D03*
D02*
D28*
X238057Y38449D03*
X238107Y91549D03*
X243077Y38449D03*
X243126Y91603D03*
X248097Y38449D03*
X248146Y91549D03*
X253117Y38449D03*
X253166Y91549D03*
X258136Y38449D03*
X258185Y91549D03*
D02*
D29*
X234219Y75850D03*
D02*
D72*
X80813Y40329D03*
X80853Y20585D03*
X123707Y41539D03*
X123746Y21795D03*
X264229Y111096D03*
X276000Y111136D03*
X311975Y166657D03*
X312014Y154886D03*
X315174Y110801D03*
X315213Y99030D03*
X334217Y158405D03*
Y184005D03*
X334285Y118798D03*
Y144398D03*
X334945Y77302D03*
Y102902D03*
X352017Y158405D03*
Y184005D03*
X352085Y118798D03*
Y144398D03*
X352745Y77302D03*
Y102902D03*
D02*
D73*
X108727Y184797D03*
X118727D03*
X128727D03*
X138727D03*
X148727D03*
X166561Y184246D03*
X176561D03*
X186561D03*
X196561D03*
D02*
D74*
X235961Y171766D03*
X240292Y170191D03*
X244622Y171766D03*
X248953Y172553D03*
X253284Y171766D03*
X257615Y172553D03*
X261945Y171766D03*
X266276D03*
D02*
D75*
X240646Y131215D03*
X263087D03*
D02*
D76*
X217615Y186923D03*
X269386Y182986D03*
D02*
D77*
X30321Y71254D03*
X42132Y52750D03*
X53943Y71254D03*
D02*
D78*
X103033Y65520D03*
Y74620D03*
Y83720D03*
D02*
D79*
X78632Y74620D03*
D02*
D80*
X23628Y30348D03*
X53628D03*
D02*
D81*
X56739Y144295D03*
X85390Y129856D03*
X128107Y98764D03*
X183146Y61884D03*
X187762Y61874D03*
X191040Y136490D03*
X193628Y46972D03*
X194376Y108016D03*
X194770Y165575D02*
X202526D01*
X206414Y161687*
X194790Y76293D03*
X197556Y172711D02*
X206414D01*
X197556D03*
X201030Y147907D03*
X203087Y49679D03*
X206040Y138232D03*
X210302Y100870D03*
X211069Y55624D03*
X216542Y45417D03*
X223746Y86864D03*
X234622Y159138D03*
X243126Y100447D03*
X246847Y57681D03*
X248077Y159138D03*
X257615Y178301D03*
X257693Y71667D03*
X261945Y183951D03*
X272713Y69984D03*
X274455Y100447D03*
X278294Y65604D03*
X280124Y136234D02*
Y127209D01*
X264229Y111313*
Y111096*
X281197Y57465D03*
X287693Y162602D03*
X291522Y136835D03*
X311109Y82425D02*
X307496D01*
X311975Y166657D02*
X295685D01*
X291630Y162602*
X287693*
X311975Y166657D02*
X312418D01*
X327624Y151451*
X352017*
X315174Y110801D02*
X324219D01*
X324494Y111077*
X352085*
X315213Y99030D02*
X331072D01*
D02*
D82*
X30321Y71254D02*
Y64561D01*
X42132Y52750*
X38205Y149069D02*
X32418D01*
X25548Y142199*
X42132Y52750D02*
X34750D01*
X23628Y41628*
Y30348*
X53628D02*
Y36057D01*
X57034Y39463*
X79947*
X80813Y40329*
X53943Y71254D02*
X55892D01*
X68274Y58872*
X80813*
X59022Y105919D02*
X67723D01*
X78904Y94738*
X59022Y105919D02*
X39465D01*
X30321Y96776*
Y71254*
X78638Y129856D02*
X85390D01*
X78904Y94738D02*
Y74892D01*
X78632Y74620*
X80813Y40329D02*
Y58872D01*
X96385*
X103033Y65520*
X80853Y20585D02*
X33392D01*
X23628Y30348*
X80853Y20585D02*
X122536D01*
X123746Y21795*
X102889Y99508D02*
Y101902D01*
X110144Y109157*
X134888*
X141620Y102425*
Y69039*
X139603Y67022*
X102889Y99508D02*
X83674D01*
X78904Y94738*
X103033Y74620D02*
X79316D01*
X78632*
X123746Y21795D02*
X141867D01*
X147388Y16274*
X160695*
X128107Y87740D02*
X115552D01*
X111532Y83720*
X103033*
X128107Y87740D02*
Y67474D01*
X123707Y63075*
Y41539*
X160695Y16274D02*
X162408D01*
X165892Y12789*
X198048*
X200823Y15565*
X292250Y102071D02*
X285065D01*
X276000Y111136*
X292595Y78400D02*
X278107D01*
X264829Y91677*
Y111096*
X264229*
X292595Y78400D02*
X298894D01*
X301183Y76111*
X301935Y75358*
Y55378*
X299445Y52888*
X292467*
X307949Y182868D02*
Y170683D01*
X311975Y166657*
X315174Y110801D02*
X300666D01*
X292250Y102386*
Y102071*
X352017Y151451D02*
Y144467D01*
X352085Y144398*
X352017Y158405D02*
Y151451D01*
Y184005D02*
Y158405D01*
X352085Y111077D02*
Y103562D01*
X352745Y102902*
X352085Y118798D02*
Y111077D01*
Y144398D02*
Y118798D01*
X352745Y102902D02*
Y77302D01*
D02*
D83*
X50781Y131175D02*
X50892Y131065D01*
Y124187*
X59199Y115880*
X150282*
X152920Y113242*
Y78611*
X162290Y69241*
X170199*
X55892Y131065D02*
Y122799D01*
X59681Y119010*
X152683*
X156768Y114925*
Y79124*
X164691Y71200*
X170199*
X64996Y171136D02*
Y167327D01*
X77430Y131065D02*
X78638Y129856D01*
X116276Y99508D02*
X127363D01*
X128107Y98764*
X118727Y184797D02*
Y164232D01*
X170199Y112760*
Y81050*
X123707Y41539D02*
X145649D01*
X163500Y59391*
X170199*
X128107Y98764D02*
X128727Y184797*
Y187898D01*
X130636Y189807*
X164760*
X166561Y188006*
Y184246*
X170199Y59391D02*
Y55801D01*
X172319Y53681*
X175909*
X170199Y61361D02*
X145264D01*
X139603Y67022*
X170199Y67270D02*
X162214D01*
X161965Y67022*
X150626*
X175909Y53681D02*
Y63780D01*
X177615Y65486*
X190211*
X179849Y53681D02*
Y40201D01*
X172565Y32917*
Y24531*
X172339Y24305*
X179849Y86760D02*
Y109128D01*
X138727Y150250*
Y184797*
X181819Y53681D02*
Y39884D01*
X189268Y32435*
Y24305*
X185759Y86760D02*
Y109094D01*
X176561Y118291*
Y184246*
X187719Y53681D02*
Y57311D01*
X183146Y61884*
X187719Y86760D02*
Y112804D01*
X181994Y118528*
Y176195*
X186561Y180762*
Y184246*
X189689Y53681D02*
Y59948D01*
X187762Y61874*
X189689Y53681D02*
Y38747D01*
X194554Y33882*
X205489*
X208372Y30998*
Y19049*
X204888Y15565*
X200823*
X190211Y65486D02*
X191658Y64039D01*
Y53681*
X191040Y122252D02*
Y125526D01*
X196719Y131205*
X211374*
X213658Y133488*
Y159384*
X233294Y179020*
X242733*
X244622Y177130*
Y171766*
X191040Y122252D02*
Y93556D01*
X191658Y92937*
Y86760*
X191040Y142952D02*
Y136490D01*
X193628Y53681D02*
Y46972D01*
Y86760D02*
Y107268D01*
X194376Y108016*
X194790Y76293D02*
Y76315D01*
X197556Y79080*
X203278*
X196040Y122252D02*
Y125122D01*
X198638Y127720*
X211611*
X219002Y135112*
Y155772*
X222369Y159138*
X234622*
X196040Y122252D02*
Y112819D01*
X199278Y109581*
Y100870*
X197569Y53681D02*
X199085D01*
X203087Y49679*
X199278Y100870D02*
Y96311D01*
X195598Y92632*
Y86760*
X201040Y122252D02*
X206040D01*
X201040Y142952D02*
Y147898D01*
X201030Y147907*
X203278Y61361D02*
X211256D01*
X231620Y40996*
Y36156*
X234741Y33035*
X251433*
X253117Y34719*
Y38449*
X203278Y63331D02*
X213176D01*
X238057Y38449*
X203278Y65301D02*
X214473D01*
X234475Y45299*
X241778*
X243077Y44000*
Y38449*
X203278Y67270D02*
X215653D01*
X235016Y47907*
X246266*
X248097Y46077*
Y38449*
X203278Y69241D02*
X216656D01*
X235528Y50368*
X252428*
X258136Y44659*
Y38449*
X203278Y71200D02*
X218239D01*
X231168Y58272*
X246256*
X246847Y57681*
X203278Y73170D02*
X219182D01*
X230479Y61874*
X276788*
X281197Y57465*
X203278Y75140D02*
X220215D01*
X231197Y64157*
X276847*
X278294Y65604*
X203278Y77110D02*
X221069D01*
X231739Y66441*
X269170*
X272713Y69984*
X203278Y79080D02*
X222014D01*
X225244Y75850*
X234219*
X203278Y81050D02*
X193838D01*
X190823Y78035*
Y66098*
X190211Y65486*
X203278Y81050D02*
X227608D01*
X238107Y91549*
X206040Y122252D02*
X234697D01*
X236276Y120673*
X206040Y142952D02*
Y138232D01*
X206414Y161687D02*
Y143326D01*
X206040Y142952*
X210302Y100870D02*
X211069Y55624*
X207045D01*
X203278Y59391*
X216542Y45417D02*
X200165D01*
X195598Y49984*
Y53681*
X223746Y86864D02*
X197672D01*
X197569Y86760*
X240292Y170191D02*
Y147307D01*
X248648Y138951*
Y122022*
X247300Y120673*
X243126Y100447D02*
Y91603D01*
X248077Y159138D02*
X248294D01*
X253284Y164128*
Y171766*
X248648Y122022D02*
X247300Y120673D01*
X253117Y38449D02*
Y35093D01*
X255292Y32917*
X289583*
X292467Y35801*
Y41864*
X258136Y38449D02*
X281276D01*
X284603Y41776*
Y59384*
X292595Y67376*
X291522Y136835D02*
Y136530D01*
X291148*
Y136234*
X331072Y99030D02*
X334945Y102902D01*
D02*
D84*
X194770Y154551D02*
X188865D01*
X187103Y156313*
Y172209*
X196561Y181667*
Y184246*
X194770Y154551D02*
Y149148D01*
X196040Y147878*
Y142952*
X234219Y75850D02*
X253510D01*
X257693Y71667*
X280124Y156956D02*
X280320Y157152D01*
D02*
D85*
X25548Y131175D02*
X50781D01*
X38205Y138045D02*
X53678D01*
X55892Y135831*
Y131065*
X50892Y153865D02*
Y150142D01*
X56739Y144295*
X55892Y153865D02*
Y181530D01*
X59022Y184659*
X64996Y167327D02*
X60892Y163222D01*
Y153865*
X65892D02*
X76889D01*
X81926Y158902*
Y171136*
X78638Y140880D02*
X64504D01*
X60892Y137268*
Y131065*
X108727Y184797D02*
X95056D01*
X87073Y192780*
X49494*
X38205Y181490*
Y149069*
X160695Y27297D02*
X169347D01*
X172339Y24305*
X189268D02*
X198540D01*
X200823Y26589*
X193382Y193203D02*
X249281D01*
X248953Y172553D02*
Y192875D01*
X249281Y193203*
X276020*
X277516Y191707*
Y159955*
X280320Y157152*
X286128Y151343*
Y151579*
X287693*
D02*
D86*
X65892Y131065D02*
X77430D01*
X108727Y184797D02*
Y189502D01*
X112428Y193203*
X193382*
X196561Y190024*
Y184246*
X236276Y111096D02*
Y104079D01*
X238107Y102248*
Y91549*
X236276Y120673D02*
Y111096D01*
X257615Y172553D02*
Y178301D01*
X261945Y183951D02*
Y171766D01*
X264229Y111096D02*
X236276D01*
X280124Y136234D02*
Y156956D01*
X287693Y162602D02*
X312014Y154886*
X315867D01*
X326355Y144398*
X334285*
X312014Y154886D02*
Y153685D01*
X313638*
X315213Y99030D02*
Y97327D01*
X322132Y90407*
Y82425*
X334285Y143198D02*
Y144398D01*
D02*
D87*
X291148Y136234D02*
Y139020D01*
X305813Y153685*
X310813*
X312014Y154886*
X292250Y91047D02*
X283855D01*
X274455Y100447*
X307496Y82425D02*
X301183Y76111D01*
X322132Y82425D02*
X329822D01*
X334945Y77302*
X334217Y184005D02*
X322600D01*
X321463Y182868*
X318973*
X334217Y184005D02*
Y158405D01*
X334285Y144398D02*
Y118798D01*
X0Y0D02*
M02*
