%FSLAX35Y35*%
%MOIN*%
G04 EasyPC Gerber Version 18.0.8 Build 3632 *
%ADD96R,0.07000X0.09000*%
%ADD95R,0.07299X0.08087*%
%ADD101R,0.07000X0.07000*%
%ADD11C,0.00100*%
%ADD10C,0.00500*%
%ADD124R,0.06512X0.04937*%
%ADD108C,0.07000*%
%ADD100C,0.08400*%
%ADD93C,0.08677*%
%ADD97C,0.09661*%
%ADD105C,0.16800*%
X0Y0D02*
D02*
D10*
X11020Y250D02*
X361020D01*
Y195801*
X11020*
Y250*
D02*
D11*
X21325Y192061D02*
G75*
G03Y178281J-6890D01*
G01*
G75*
G03Y192061J6890*
G01*
X21788Y17780D02*
G75*
G03Y4000J-6890D01*
G01*
G75*
G03Y17780J6890*
G01*
X313746Y139374D02*
G75*
G03Y125594J-6890D01*
G01*
G75*
G03Y139374J6890*
G01*
D02*
D93*
X59022Y105919D03*
Y184659D03*
D02*
D95*
X234957Y28902D03*
X235823Y57681D03*
X245981Y28902D03*
X246847Y57681D03*
X269367Y29315D03*
X270174Y57465D03*
X280390Y29315D03*
X281197Y57465D03*
X301798Y56579D03*
X301935Y28970D03*
X312821Y56579D03*
X312959Y28970D03*
X334327Y29089D03*
X335577Y56372D03*
X345351Y29089D03*
X346601Y56372D03*
D02*
D96*
X235981Y15614D03*
X245981D03*
X270223D03*
X280223D03*
X303756Y15594D03*
X313756D03*
X335459Y15614D03*
X345459D03*
D02*
D97*
X102889Y99508D03*
X116276D03*
D02*
D100*
X80813Y40329D03*
X80853Y20585D03*
X123707Y41539D03*
X123746Y21795D03*
X264229Y111096D03*
X276000Y111136D03*
X311975Y166657D03*
X312014Y154886D03*
X315174Y110801D03*
X315213Y99030D03*
X334217Y158405D03*
Y184005D03*
X334285Y118798D03*
Y144398D03*
X334945Y77302D03*
Y102902D03*
X352017Y158405D03*
Y184005D03*
X352085Y118798D03*
Y144398D03*
X352745Y77302D03*
Y102902D03*
D02*
D101*
X108727Y184797D03*
X118727D03*
X128727D03*
X138727D03*
X148727D03*
X166561Y184246D03*
X176561D03*
X186561D03*
X196561D03*
D02*
D105*
X30321Y71254D03*
X42132Y52750D03*
X53943Y71254D03*
D02*
D108*
X23628Y30348D03*
X53628D03*
D02*
D124*
X235174Y39030D03*
Y46510D03*
X243835Y42770D03*
X270262Y39098D03*
Y46579D03*
X278924Y42839D03*
X303136Y39098D03*
Y46579D03*
X311798Y42839D03*
X336138Y39177D03*
Y46657D03*
X344800Y42917D03*
X0Y0D02*
M02*
