%FSLAX35Y35*%
%MOIN*%
G04 EasyPC Gerber Version 18.0.8 Build 3632 *
%ADD11C,0.00100*%
%ADD13C,0.00394*%
%ADD126C,0.00400*%
%ADD10C,0.00500*%
%ADD16C,0.00600*%
%ADD19C,0.00800*%
X0Y0D02*
D02*
D10*
X11020Y250D02*
X361020D01*
Y195801*
X11020*
Y250*
X250469Y23902D02*
X230469D01*
Y33902*
X250469*
Y23902*
X251335Y52681D02*
X231335D01*
Y62681*
X251335*
Y52681*
X284878Y24315D02*
X264878D01*
Y34315*
X284878*
Y24315*
X285685Y52465D02*
X265685D01*
Y62465*
X285685*
Y52465*
X317309Y51579D02*
X297309D01*
Y61579*
X317309*
Y51579*
X317447Y23970D02*
X297447D01*
Y33970*
X317447*
Y23970*
X349839Y24089D02*
X329839D01*
Y34089*
X349839*
Y24089*
X351089Y51372D02*
X331089D01*
Y61372*
X351089*
Y51372*
D02*
D11*
X21325Y192061D02*
G75*
G03Y178281J-6890D01*
G01*
G75*
G03Y192061J6890*
G01*
X21788Y17780D02*
G75*
G03Y4000J-6890D01*
G01*
G75*
G03Y17780J6890*
G01*
X234404Y38170D02*
Y39970D01*
X236704*
Y38170*
X234404*
G36*
Y39970*
X236704*
Y38170*
X234404*
G37*
Y45570D02*
Y47370D01*
X236704*
Y45570*
X234404*
G36*
Y47370*
X236704*
Y45570*
X234404*
G37*
X236722Y25559D02*
X233769D01*
Y32252*
X236722*
Y25559*
G36*
X233769*
Y32252*
X236722*
Y25559*
G37*
X237588Y54338D02*
X234635D01*
Y61031*
X237588*
Y54338*
G36*
X234635*
Y61031*
X237588*
Y54338*
G37*
X242304Y41870D02*
Y43670D01*
X244604*
Y41870*
X242304*
G36*
Y43670*
X244604*
Y41870*
X242304*
G37*
X247169Y25552D02*
X244216D01*
Y32244*
X247169*
Y25552*
G36*
X244216*
Y32244*
X247169*
Y25552*
G37*
X248035Y54331D02*
X245082D01*
Y61024*
X248035*
Y54331*
G36*
X245082*
Y61024*
X248035*
Y54331*
G37*
X269493Y38239D02*
Y40039D01*
X271793*
Y38239*
X269493*
G36*
Y40039*
X271793*
Y38239*
X269493*
G37*
Y45639D02*
Y47439D01*
X271793*
Y45639*
X269493*
G36*
Y47439*
X271793*
Y45639*
X269493*
G37*
X271131Y25972D02*
X268178D01*
Y32665*
X271131*
Y25972*
G36*
X268178*
Y32665*
X271131*
Y25972*
G37*
X271939Y54122D02*
X268985D01*
Y60815*
X271939*
Y54122*
G36*
X268985*
Y60815*
X271939*
Y54122*
G37*
X277393Y41939D02*
Y43739D01*
X279693*
Y41939*
X277393*
G36*
Y43739*
X279693*
Y41939*
X277393*
G37*
X281578Y25965D02*
X278625D01*
Y32658*
X281578*
Y25965*
G36*
X278625*
Y32658*
X281578*
Y25965*
G37*
X282385Y54115D02*
X279432D01*
Y60807*
X282385*
Y54115*
G36*
X279432*
Y60807*
X282385*
Y54115*
G37*
X302367Y38239D02*
Y40039D01*
X304667*
Y38239*
X302367*
G36*
Y40039*
X304667*
Y38239*
X302367*
G37*
Y45639D02*
Y47439D01*
X304667*
Y45639*
X302367*
G36*
Y47439*
X304667*
Y45639*
X302367*
G37*
X303563Y53236D02*
X300609D01*
Y59929*
X303563*
Y53236*
G36*
X300609*
Y59929*
X303563*
Y53236*
G37*
X303700Y25628D02*
X300747D01*
Y32320*
X303700*
Y25628*
G36*
X300747*
Y32320*
X303700*
Y25628*
G37*
X310267Y41939D02*
Y43739D01*
X312567*
Y41939*
X310267*
G36*
Y43739*
X312567*
Y41939*
X310267*
G37*
X313746Y139374D02*
G75*
G03Y125594J-6890D01*
G01*
G75*
G03Y139374J6890*
G01*
X314009Y53229D02*
X311056D01*
Y59922*
X314009*
Y53229*
G36*
X311056*
Y59922*
X314009*
Y53229*
G37*
X314147Y25620D02*
X311194D01*
Y32313*
X314147*
Y25620*
G36*
X311194*
Y32313*
X314147*
Y25620*
G37*
X335369Y38317D02*
Y40117D01*
X337669*
Y38317*
X335369*
G36*
Y40117*
X337669*
Y38317*
X335369*
G37*
Y45717D02*
Y47517D01*
X337669*
Y45717*
X335369*
G36*
Y47517*
X337669*
Y45717*
X335369*
G37*
X336092Y25746D02*
X333139D01*
Y32439*
X336092*
Y25746*
G36*
X333139*
Y32439*
X336092*
Y25746*
G37*
X337342Y53029D02*
X334389D01*
Y59722*
X337342*
Y53029*
G36*
X334389*
Y59722*
X337342*
Y53029*
G37*
X343269Y42017D02*
Y43817D01*
X345569*
Y42017*
X343269*
G36*
Y43817*
X345569*
Y42017*
X343269*
G37*
X346539Y25739D02*
X343586D01*
Y32431*
X346539*
Y25739*
G36*
X343586*
Y32431*
X346539*
Y25739*
G37*
X347789Y53022D02*
X344836D01*
Y59715*
X347789*
Y53022*
G36*
X344836*
Y59715*
X347789*
Y53022*
G37*
D02*
D13*
X108235Y138774D02*
X107989Y139266D01*
X107496Y139512*
X107004Y139266*
X106758Y138774*
Y137051*
X109711*
Y138774*
X109465Y139266*
X108973Y139512*
X108481Y139266*
X108235Y138774*
Y137051*
X106758Y140988D02*
X109711Y142219D01*
X106758Y143449*
X107989Y141480D02*
Y142957D01*
X106758Y146156D02*
X109711D01*
Y144925D02*
Y147386D01*
X106758Y149354D02*
Y150339D01*
Y149846D02*
X109711D01*
X109219Y149354*
X229248Y62819D02*
X226296D01*
Y61096*
X226542Y60604*
X227034Y60358*
X227526Y60604*
X227772Y61096*
Y62819*
Y61096D02*
X229248Y60358D01*
Y58390D02*
Y57406D01*
Y57898D02*
X226296D01*
X226788Y58390*
X229002Y54699D02*
X229248Y54207D01*
Y53715*
X229002Y53222*
X228510Y52976*
X228018Y53222*
X227772Y53715*
Y54207*
Y53715D02*
X227526Y53222D01*
X227034Y52976*
X226542Y53222*
X226296Y53715*
Y54207*
X226542Y54699*
X247270Y40093D02*
X248254D01*
X248746Y40339*
X248993Y40585*
X249239Y41077*
Y41569*
X248993Y42061*
X248746Y42307*
X248254Y42553*
X247270*
X246778Y42307*
X246532Y42061*
X246286Y41569*
Y41077*
X246532Y40585*
X246778Y40339*
X247270Y40093*
X247024Y41815D02*
X246286Y42553D01*
X247024Y44030D02*
X247516Y44276D01*
X247762Y44768*
Y45260*
X247516Y45752*
X247024Y45998*
X246532Y45752*
X246286Y45260*
Y44768*
X246532Y44276*
X247024Y44030*
X247762*
X248500Y44276*
X248993Y44768*
X249239Y45260*
X256906Y28203D02*
Y31156D01*
X255183*
X254691Y30909*
X254445Y30417*
X254691Y29925*
X255183Y29679*
X256906*
X255183D02*
X254445Y28203D01*
X252231D02*
X251739Y28449D01*
X251246Y28941*
X251000Y29679*
Y30417*
X251246Y30909*
X251739Y31156*
X252231*
X252723Y30909*
X252969Y30417*
X252723Y29925*
X252231Y29679*
X251739*
X251246Y29925*
X251000Y30417*
X263806Y62091D02*
X260853D01*
Y60368*
X261099Y59876*
X261591Y59630*
X262083Y59876*
X262329Y60368*
Y62091*
Y60368D02*
X263806Y59630D01*
Y57661D02*
Y56677D01*
Y57169D02*
X260853D01*
X261345Y57661*
X263806Y52248D02*
Y54217D01*
X262083Y52494*
X261591Y52248*
X261099Y52494*
X260853Y52986*
Y53724*
X261099Y54217*
X282723Y41913D02*
X283707D01*
X284199Y42159*
X284445Y42406*
X284691Y42898*
Y43390*
X284445Y43882*
X284199Y44128*
X283707Y44374*
X282723*
X282231Y44128*
X281985Y43882*
X281739Y43390*
Y42898*
X281985Y42406*
X282231Y42159*
X282723Y41913*
X282477Y43636D02*
X281739Y44374D01*
X281985Y45850D02*
X281739Y46343D01*
Y47081*
X281985Y47573*
X282477Y47819*
X282723*
X283215Y47573*
X283461Y47081*
Y45850*
X284691*
Y47819*
X291640Y27957D02*
Y30909D01*
X289918*
X289426Y30663*
X289180Y30171*
X289426Y29679*
X289918Y29433*
X291640*
X289918D02*
X289180Y27957D01*
X286965Y29433D02*
X286473D01*
X285981Y29679*
X285735Y30171*
X285981Y30663*
X286473Y30909*
X286965*
X287457Y30663*
X287703Y30171*
X287457Y29679*
X286965Y29433*
X287457Y29187*
X287703Y28695*
X287457Y28203*
X286965Y27957*
X286473*
X285981Y28203*
X285735Y28695*
X285981Y29187*
X286473Y29433*
X316128Y41913D02*
X317113D01*
X317605Y42159*
X317851Y42406*
X318097Y42898*
Y43390*
X317851Y43882*
X317605Y44128*
X317113Y44374*
X316128*
X315636Y44128*
X315390Y43882*
X315144Y43390*
Y42898*
X315390Y42406*
X315636Y42159*
X316128Y41913*
X315882Y43636D02*
X315144Y44374D01*
Y47081D02*
X318097D01*
X316128Y45850*
Y47819*
X321660Y60673D02*
X318707D01*
Y58951*
X318953Y58459*
X319445Y58213*
X319937Y58459*
X320183Y58951*
Y60673*
Y58951D02*
X321660Y58213D01*
Y56244D02*
Y55260D01*
Y55752D02*
X318707D01*
X319199Y56244*
X321660Y52307D02*
Y51323D01*
Y51815D02*
X318707D01*
X319199Y52307*
X324061Y27967D02*
Y30919D01*
X322339*
X321847Y30673*
X321601Y30181*
X321847Y29689*
X322339Y29443*
X324061*
X322339D02*
X321601Y27967D01*
X320124D02*
X318156Y30919D01*
X320124*
X349278Y40329D02*
X350262D01*
X350754Y40575*
X351000Y40821*
X351246Y41313*
Y41805*
X351000Y42297*
X350754Y42543*
X350262Y42789*
X349278*
X348786Y42543*
X348540Y42297*
X348294Y41805*
Y41313*
X348540Y40821*
X348786Y40575*
X349278Y40329*
X349032Y42051D02*
X348294Y42789D01*
X348540Y44512D02*
X348294Y45004D01*
Y45496*
X348540Y45988*
X349032Y46234*
X349524Y45988*
X349770Y45496*
Y45004*
Y45496D02*
X350016Y45988D01*
X350508Y46234*
X351000Y45988*
X351246Y45496*
Y45004*
X351000Y44512*
X356640Y29108D02*
Y32061D01*
X354918*
X354426Y31815*
X354180Y31323*
X354426Y30831*
X354918Y30585*
X356640*
X354918D02*
X354180Y29108D01*
X352703Y29846D02*
X352457Y30339D01*
X351965Y30585*
X351473*
X350981Y30339*
X350735Y29846*
X350981Y29354*
X351473Y29108*
X351965*
X352457Y29354*
X352703Y29846*
Y30585*
X352457Y31323*
X351965Y31815*
X351473Y32061*
X356246Y60634D02*
X353294D01*
Y58911*
X353540Y58419*
X354032Y58173*
X354524Y58419*
X354770Y58911*
Y60634*
Y58911D02*
X356246Y58173D01*
Y56205D02*
Y55220D01*
Y55713D02*
X353294D01*
X353786Y56205*
X356000Y52514D02*
X356246Y52022D01*
Y51530*
X356000Y51037*
X355508Y50791*
X354032*
X353540Y51037*
X353294Y51530*
Y52022*
X353540Y52514*
X354032Y52760*
X355508*
X356000Y52514*
X353540Y51037*
D02*
D16*
X242104Y37170D02*
Y48370D01*
X236904*
Y37170*
X242104*
X277193Y37239D02*
Y48439D01*
X271993*
Y37239*
X277193*
X310067D02*
Y48439D01*
X304867*
Y37239*
X310067*
X343069Y37317D02*
Y48517D01*
X337869*
Y37317*
X343069*
D02*
D19*
X43274Y180722D02*
G75*
G03X74770Y180722I15748J-39370D01*
G01*
X74770Y192533*
X43274*
Y180722*
X43274Y180722*
X59416Y180959D02*
G75*
G02Y102219J-39370D01*
G01*
G75*
G02Y180959J39370*
G01*
D02*
D126*
X58847Y113596D02*
Y116096D01*
Y173970D02*
Y176470D01*
X57597Y175220D02*
X60097D01*
X0Y0D02*
M02*
